<?xml version="1.0" encoding="UTF-8" standalone="no"?>
<!-- Created with Inkscape (http://www.inkscape.org/) -->

<svg
        xmlns:dc="http://purl.org/dc/elements/1.1/"
        xmlns:cc="http://creativecommons.org/ns#"
        xmlns:rdf="http://www.w3.org/1999/02/22-rdf-syntax-ns#"
        xmlns="http://www.w3.org/2000/svg"
        xmlns:sodipodi="http://sodipodi.sourceforge.net/DTD/sodipodi-0.dtd"
        xmlns:inkscape="http://www.inkscape.org/namespaces/inkscape"
        width="92.52993mm"
        height="134.21819mm"
        viewBox="0 0 92.52993 134.21819"
        version="1.1"
        id="svg8"
        sodipodi:docname="Lamp_ON.svg"
        inkscape:version="0.92.4 (5da689c313, 2019-01-14)">
  <defs
     id="defs2" />
  <sodipodi:namedview
     id="base"
     pagecolor="#ffffff"
     bordercolor="#666666"
     borderopacity="1.0"
     inkscape:pageopacity="0.0"
     inkscape:pageshadow="2"
     inkscape:zoom="0.35"
     inkscape:cx="-298.01445"
     inkscape:cy="236.63845"
     inkscape:document-units="mm"
     inkscape:current-layer="layer1"
     showgrid="false"
     fit-margin-top="0"
     fit-margin-left="0"
     fit-margin-right="0"
     fit-margin-bottom="0"
     inkscape:window-width="1366"
     inkscape:window-height="705"
     inkscape:window-x="-8"
     inkscape:window-y="-8"
     inkscape:window-maximized="1" />
  <metadata
     id="metadata5">
    <rdf:RDF>
      <cc:Work
         rdf:about="">
        <dc:format>image/svg+xml</dc:format>
        <dc:type
           rdf:resource="http://purl.org/dc/dcmitype/StillImage" />
        <dc:title></dc:title>
      </cc:Work>
    </rdf:RDF>
  </metadata>
  <g
     inkscape:label="Layer 1"
     inkscape:groupmode="layer"
     id="layer1"
     transform="translate(-61.840728,-77.225739)">
    <path
       style="fill:#000000;stroke-width:0.26458335"
       d="m 94.988015,210.9687 c -4.178435,-1.33871 -8.633093,-5.5746 -10.321685,-9.81479 -0.386122,-0.96958 -0.73243,-1.34945 -1.688468,-1.85209 -2.74416,-1.44274 -5.611979,-5.30495 -6.378871,-8.59069 -0.47765,-2.0465 -0.406635,-5.31577 0.153292,-7.05674 0.45848,-1.42555 0.4626,-1.60882 0.06543,-2.91042 -0.693494,-2.27268 -0.785574,-3.46506 -0.436994,-5.65875 0.428308,-2.69543 0.41179,-3.76733 -0.09526,-6.18135 -0.229243,-1.09141 -0.619583,-3.23453 -0.867421,-4.7625 -0.830548,-5.12045 -2.006735,-8.07426 -6.211356,-15.59882 -2.852033,-5.10398 -4.088556,-7.74204 -5.15212,-10.99181 -2.686,-8.20719 -2.938301,-17.74666 -0.699773,-26.45833 3.720664,-14.479691 15.030313,-26.822671 29.086311,-31.743841 6.01775,-2.10689 6.134328,-2.12283 15.52779,-2.12283 8.40727,0 8.48557,0.005 11.16093,0.72773 15.51726,4.19125 26.9125,14.43735 32.44173,29.170191 3.56906,9.50989 3.73406,20.98857 0.44308,30.82396 -0.91033,2.72059 -3.5031,8.08217 -5.94959,12.30312 -3.54061,6.10865 -5.04905,10.53888 -5.6887,16.70747 -0.13956,1.34589 -0.451,2.94005 -0.69208,3.54257 -0.39152,0.97851 -0.39954,1.29786 -0.0751,2.99044 0.50138,2.61546 0.45987,4.77524 -0.129,6.71155 -0.46624,1.53308 -0.47205,1.74297 -0.0879,3.175 0.69092,2.57542 0.75971,3.43709 0.45314,5.67615 -0.36368,2.65617 -0.80255,3.81663 -2.31858,6.13073 -1.16327,1.77565 -3.11748,3.58039 -4.69215,4.33326 -0.54741,0.26173 -0.95744,0.7711 -1.3031,1.61882 -1.66911,4.09345 -5.16641,7.61236 -9.42098,9.47916 l -1.70635,0.74871 -11.90625,0.059 c -11.154122,0.0552 -12.007562,0.0265 -13.510046,-0.45487 z M 117.6548,199.01107 c 0.67058,-0.39422 1.41746,-1.0193 1.65974,-1.38907 l 0.44051,-0.6723 h -11.65707 c -11.353585,0 -11.6501,0.0131 -11.38915,0.50063 0.380291,0.71058 1.803723,1.85864 2.483062,2.00269 0.316206,0.0671 0.813048,0.17621 1.104088,0.24258 0.29104,0.0664 4.04151,0.10077 8.33437,0.0764 l 7.80521,-0.0442 z m 9.17293,-10.41074 c 0.68583,-0.48038 0.76901,-1.48603 0.17227,-2.08277 -0.37009,-0.37008 -2.45777,-0.41577 -18.99709,-0.41577 -14.099348,0 -18.657889,0.0766 -18.898806,0.3175 -0.526269,0.52627 -0.377293,1.72728 0.27054,2.18104 0.518337,0.36305 2.737998,0.41187 18.726546,0.41187 15.98854,0 18.2082,-0.0488 18.72654,-0.41187 z m 0.18663,-10.86618 c 0.61234,-0.61234 0.40598,-1.73767 -0.39234,-2.13952 -0.51193,-0.25769 -4.73015,-0.33384 -18.6604,-0.33686 -15.866412,-0.003 -18.06861,0.0449 -18.586976,0.40798 -0.647833,0.45376 -0.796809,1.65477 -0.27054,2.18104 0.240917,0.24091 4.799458,0.3175 18.898806,0.3175 16.80258,0 18.62249,-0.0412 19.01145,-0.43014 z m 0.49959,-11.01309 c 0.20622,-0.32743 0.45753,-1.30969 0.55846,-2.18282 0.82612,-7.14674 3.04535,-13.28687 7.98498,-22.09271 2.57527,-4.59092 3.87086,-7.58222 4.75571,-10.9802 0.72127,-2.76983 0.75713,-3.17881 0.74231,-8.46667 -0.015,-5.35478 -0.0455,-5.66876 -0.84018,-8.65903 -1.54072,-5.79723 -4.57627,-11.00808 -8.93341,-15.335161 -2.58407,-2.56625 -6.44776,-5.30074 -9.44878,-6.68729 -2.34814,-1.08491 -6.66995,-2.35741 -9.51675,-2.80208 -2.60953,-0.40761 -9.1981,-0.18067 -11.85885,0.40847 -13.901301,3.07801 -24.322079,14.340201 -26.319752,28.444881 -0.463336,3.2714 -0.497859,5.60054 -0.131377,8.86354 0.569976,5.07484 1.901553,8.87189 5.163709,14.72454 5.310209,9.52707 7.11698,14.29237 8.21077,21.65567 0.248589,1.67349 0.568674,3.19154 0.711295,3.37344 0.203187,0.25915 4.402762,0.33073 19.403105,0.33073 h 19.1438 z"
       id="path21"
       inkscape:connector-curvature="0" />
    <path
       style="fill:#00ffff;stroke-width:2.85714293"
       d="m 102.57106,336.21431 c -0.67933,-1.96429 -3.23248,-12.57143 -5.673657,-23.57143 -2.584586,-11.64619 -13.036597,-37.81663 -25.023337,-62.65508 -20.490349,-42.45931 -20.5898,-42.7806 -21.667695,-70 -0.886193,-22.37849 0.02658,-30.62901 5.025706,-45.42694 11.663081,-34.52398 33.671372,-59.827299 65.788953,-75.63873 17.75584,-8.741175 20.04437,-9.136395 52.90444,-9.136395 32.76084,0 35.24258,0.424764 53.77898,9.204611 50.89445,24.106375 80.57426,80.113734 71.26242,134.475904 -2.24392,13.09986 -9.03612,30.57128 -22.00726,56.60873 -16.23567,32.59044 -22.71258,51.20926 -28.97131,83.28218 l -1.25447,6.42858 h -71.46381 c -54.60754,0 -71.75515,-0.8424 -72.69896,-3.57143 z"
       id="path23"
       inkscape:connector-curvature="0"
       transform="matrix(0.26458333,0,0,0.26458333,61.840728,77.225739)" />
    <path
       style="fill:#00ffff;stroke-width:2.85714293"
       d="m 104.69806,376.21431 c 0.89295,-2.68288 17.12383,-3.77213 65.23809,-4.37811 64.54118,-0.81286 76.90654,0.0147 76.90654,5.14683 0,1.75769 -26.72159,2.80271 -71.66666,2.80271 -56.06255,0 -71.40785,-0.77762 -70.47797,-3.57143 z"
       id="path25"
       inkscape:connector-curvature="0"
       transform="matrix(0.26458333,0,0,0.26458333,61.840728,77.225739)" />
    <path
       style="fill:#00ffff;stroke-width:2.85714293"
       d="m 159.08987,420.52837 c 9.0931,-0.56871 23.23595,-0.56344 31.42858,0.0117 8.19262,0.57516 0.75282,1.04047 -16.5329,1.03403 -17.28571,-0.006 -23.98877,-0.47704 -14.89568,-1.04575 z"
       id="path29"
       inkscape:connector-curvature="0"
       transform="matrix(0.26458333,0,0,0.26458333,61.840728,77.225739)" />
    <path
       style="fill:#00ffff;stroke-width:2.85714293"
       d="m 103.98555,416.92859 c 0,-1.82857 25.71429,-2.85714 71.42857,-2.85714 45.71429,0 71.42857,1.02857 71.42857,2.85714 0,1.82857 -25.71428,2.85715 -71.42857,2.85715 -45.71428,0 -71.42857,-1.02858 -71.42857,-2.85715 z"
       id="path31"
       inkscape:connector-curvature="0"
       transform="matrix(0.26458333,0,0,0.26458333,61.840728,77.225739)" />
    <path
       style="fill:#000000;stroke-width:2.85714293;fill-opacity:0"
       d="m 139.53164,458.44803 c -4.9586,-3.75049 -1.15763,-4.19485 35.88248,-4.19485 37.04011,0 40.84109,0.44436 35.88249,4.19485 -7.86074,5.94556 -63.90424,5.94556 -71.76497,0 z"
       id="path33"
       inkscape:connector-curvature="0"
       transform="matrix(0.26458333,0,0,0.26458333,61.840728,77.225739)" />
    <path
       style="fill:#000000;fill-opacity:0;stroke-width:2.85714293"
       d="m 120.70795,337.67794 -17.56331,-1.00678 -1.9702,-10.58556 C 97.98268,308.93673 87.232589,280.76944 69.328382,242.64288 L 52.55698,206.92859 v -32.85714 c 0,-31.04152 0.505447,-33.92418 9.147003,-52.16722 12.328631,-26.02676 33.809294,-48.200199 58.811597,-60.70834 19.2794,-9.64509 21.04478,-9.981583 52.36746,-9.981583 23.45937,0 35.78638,1.314931 44.61612,4.759233 45.57185,17.77664 77.23929,60.4613 81.36494,109.67212 1.95844,23.3602 -2.87482,41.00131 -23.44386,85.56865 -13.49253,29.23454 -23.30526,57.10869 -28.4144,80.71428 l -1.70059,7.85715 -53.51699,-0.55052 c -29.43435,-0.30277 -61.42049,-1.00357 -71.08031,-1.55728 z"
       id="path4562"
       inkscape:connector-curvature="0"
       transform="matrix(0.26458333,0,0,0.26458333,61.840728,77.225739)" />
    <path
       style="fill:#00beca;fill-opacity:0;stroke-width:2.85714293"
       d="m 120.70795,337.67794 -17.56331,-1.00678 -1.9702,-10.58556 C 97.98268,308.93673 87.232589,280.76944 69.328382,242.64288 L 52.55698,206.92859 v -32.85714 c 0,-31.04152 0.505447,-33.92418 9.147003,-52.16722 12.328631,-26.02676 33.809294,-48.200199 58.811597,-60.70834 19.2794,-9.64509 21.04478,-9.981583 52.36746,-9.981583 23.45937,0 35.78638,1.314931 44.61612,4.759233 45.57185,17.77664 77.23929,60.4613 81.36494,109.67212 1.95844,23.3602 -2.87482,41.00131 -23.44386,85.56865 -13.49253,29.23454 -23.30526,57.10869 -28.4144,80.71428 l -1.70059,7.85715 -53.51699,-0.55052 c -29.43435,-0.30277 -61.42049,-1.00357 -71.08031,-1.55728 z"
       id="path4564"
       inkscape:connector-curvature="0"
       transform="matrix(0.26458333,0,0,0.26458333,61.840728,77.225739)" />
    <path
       style="fill:#00beca;fill-opacity:0;stroke-width:2.85714293"
       d="m 120.70795,337.67794 -17.56331,-1.00678 -1.9702,-10.58556 C 97.98268,308.93673 87.232589,280.76944 69.328382,242.64288 L 52.55698,206.92859 v -32.85714 c 0,-31.04152 0.505447,-33.92418 9.147003,-52.16722 12.328631,-26.02676 33.809294,-48.200199 58.811597,-60.70834 19.2794,-9.64509 21.04478,-9.981583 52.36746,-9.981583 23.45937,0 35.78638,1.314931 44.61612,4.759233 45.57185,17.77664 77.23929,60.4613 81.36494,109.67212 1.95844,23.3602 -2.87482,41.00131 -23.44386,85.56865 -13.49253,29.23454 -23.30526,57.10869 -28.4144,80.71428 l -1.70059,7.85715 -53.51699,-0.55052 c -29.43435,-0.30277 -61.42049,-1.00357 -71.08031,-1.55728 z"
       id="path4566"
       inkscape:connector-curvature="0"
       transform="matrix(0.26458333,0,0,0.26458333,61.840728,77.225739)" />
    <path
       style="fill:#00beca;fill-opacity:0;stroke-width:2.85714293"
       d="m 120.70795,337.67794 -17.56331,-1.00678 -1.9702,-10.58556 C 97.98268,308.93673 87.232589,280.76944 69.328382,242.64288 L 52.55698,206.92859 v -32.85714 c 0,-31.04152 0.505447,-33.92418 9.147003,-52.16722 12.328631,-26.02676 33.809294,-48.200199 58.811597,-60.70834 19.2794,-9.64509 21.04478,-9.981583 52.36746,-9.981583 23.45937,0 35.78638,1.314931 44.61612,4.759233 45.57185,17.77664 77.23929,60.4613 81.36494,109.67212 1.95844,23.3602 -2.87482,41.00131 -23.44386,85.56865 -13.49253,29.23454 -23.30526,57.10869 -28.4144,80.71428 l -1.70059,7.85715 -53.51699,-0.55052 c -29.43435,-0.30277 -61.42049,-1.00357 -71.08031,-1.55728 z"
       id="path4568"
       inkscape:connector-curvature="0"
       transform="matrix(0.26458333,0,0,0.26458333,61.840728,77.225739)" />
    <path
       style="fill:#00beca;fill-opacity:0;stroke-width:2.85714293"
       d="m 120.70795,337.67794 -17.56331,-1.00678 -1.9702,-10.58556 C 97.98268,308.93673 87.232589,280.76944 69.328382,242.64288 L 52.55698,206.92859 v -32.85714 c 0,-31.04152 0.505447,-33.92418 9.147003,-52.16722 12.328631,-26.02676 33.809294,-48.200199 58.811597,-60.70834 19.2794,-9.64509 21.04478,-9.981583 52.36746,-9.981583 23.45937,0 35.78638,1.314931 44.61612,4.759233 45.57185,17.77664 77.23929,60.4613 81.36494,109.67212 1.95844,23.3602 -2.87482,41.00131 -23.44386,85.56865 -13.49253,29.23454 -23.30526,57.10869 -28.4144,80.71428 l -1.70059,7.85715 -53.51699,-0.55052 c -29.43435,-0.30277 -61.42049,-1.00357 -71.08031,-1.55728 z"
       id="path4570"
       inkscape:connector-curvature="0"
       transform="matrix(0.26458333,0,0,0.26458333,61.840728,77.225739)" />
    <path
       style="fill:#00beca;fill-opacity:0;stroke-width:2.85714293"
       d="m 120.70795,337.67794 -17.56331,-1.00678 -1.9702,-10.58556 C 97.98268,308.93673 87.232589,280.76944 69.328382,242.64288 L 52.55698,206.92859 v -32.85714 c 0,-31.04152 0.505447,-33.92418 9.147003,-52.16722 12.328631,-26.02676 33.809294,-48.200199 58.811597,-60.70834 19.2794,-9.64509 21.04478,-9.981583 52.36746,-9.981583 23.45937,0 35.78638,1.314931 44.61612,4.759233 45.57185,17.77664 77.23929,60.4613 81.36494,109.67212 1.95844,23.3602 -2.87482,41.00131 -23.44386,85.56865 -13.49253,29.23454 -23.30526,57.10869 -28.4144,80.71428 l -1.70059,7.85715 -53.51699,-0.55052 c -29.43435,-0.30277 -61.42049,-1.00357 -71.08031,-1.55728 z"
       id="path4572"
       inkscape:connector-curvature="0"
       transform="matrix(0.26458333,0,0,0.26458333,61.840728,77.225739)" />
    <path
       style="fill:#00beca;fill-opacity:0;stroke-width:2.85714293"
       d="M 113.36672,497.15031 C 105.94904,492.44614 97.014754,483.40208 92.90386,476.43602 88.890669,469.63551 81.257623,460.63565 75.941537,456.43634 59.855234,443.72934 57.352086,434.82528 57.18252,389.70796 56.974146,334.26365 52.583226,315.11205 29.994963,271.12577 7.8748199,228.05106 2.5569799,209.13864 2.5569799,173.54503 2.5569799,126.158 16.926565,89.142804 48.271266,55.787755 69.442083,33.25911 87.132654,21.081481 114.47285,10.216681 c 17.5595,-6.9780203 22.27932,-7.5660666 60,-7.475458 37.93985,0.091135 42.42041,0.6821363 61.11761,8.061631 72.89609,28.77095 116.30275,96.089476 111.72278,173.268596 -1.78343,30.05362 -7.90835,49.33861 -27.16415,85.52966 -7.57888,14.2444 -15.34625,30.39891 -17.26082,35.89891 -6.647,19.09492 -10.5594,53.04483 -10.04243,87.14286 0.6028,39.75657 -1.36329,46.37706 -19.23215,64.76137 -6.86691,7.06497 -16.8446,18.33411 -22.17265,25.04257 -17.46664,21.99186 -20.90024,23.0304 -76.18183,23.04252 l -48.72634,0.0107 z m 99.29078,-36.2646 c 3.87329,-2.53789 7.04234,-5.75217 7.04234,-7.14286 0,-1.39069 -20.03572,-2.52854 -44.52381,-2.52854 -34.34256,0 -44.25444,0.81668 -43.34581,3.57143 2.48273,7.527 15.39438,10.6306 44.39871,10.67217 22.29372,0.032 31.08594,-1.07157 36.42857,-4.5722 z m 35.61377,-43.95712 c 0,-5.56454 -1.90477,-5.71428 -72.68853,-5.71428 -45.37704,0 -73.35199,1.07351 -74.45433,2.85714 -4.655273,7.53237 4.37021,8.57143 74.45433,8.57143 70.78376,0 72.68853,-0.14974 72.68853,-5.71429 z m 0,-39.87054 c 0,-8.16463 -9.94046,-9.17129 -80.57752,-8.16003 -42.23413,0.60466 -63.06359,1.94717 -65.32248,4.2102 -8.307996,8.32323 0.99381,9.53466 73.21147,9.53466 70.22208,0 72.68853,-0.18952 72.68853,-5.58483 z m 1.62783,-42.27231 c 7.37835,-33.381 12.37454,-47.27609 30.51229,-84.85871 l 20.61508,-42.71584 0.96568,-28.71273 c 0.78869,-23.45063 -0.12057,-31.81217 -4.96154,-45.62494 C 284.72281,97.755492 262.55708,72.890975 228.69975,56.223064 212.0843,48.043307 206.7749,46.91179 180.4332,45.936692 155.07557,44.998024 148.29927,45.765921 133.12921,51.297195 109.50038,59.912698 98.350009,67.346444 80.260874,86.543521 62.614494,105.27073 52.419829,126.43442 47.652026,154.23809 c -5.341992,31.1521 -0.453795,52.22582 23.388257,100.83009 13.402788,27.32285 21.207626,47.28996 24.072331,61.58424 2.331526,11.6338 5.924596,22.22126 7.984606,23.52766 2.06001,1.30643 35.54241,2.395 74.40533,2.41906 l 70.65985,0.0437 z"
       id="path4574"
       inkscape:connector-curvature="0"
       transform="matrix(0.26458333,0,0,0.26458333,61.840728,77.225739)" />
    <path
       style="fill:#00beca;fill-opacity:1;stroke-width:2.85714293"
       d="m 120.70795,337.67794 -17.56331,-1.00678 -1.9702,-10.58556 C 97.98268,308.93673 87.232589,280.76944 69.328382,242.64288 L 52.55698,206.92859 v -32.85714 c 0,-31.04152 0.505447,-33.92418 9.147003,-52.16722 12.328631,-26.02676 33.809294,-48.200199 58.811597,-60.70834 19.2794,-9.64509 21.04478,-9.981583 52.36746,-9.981583 23.45937,0 35.78638,1.314931 44.61612,4.759233 45.57185,17.77664 77.23929,60.4613 81.36494,109.67212 1.95844,23.3602 -2.87482,41.00131 -23.44386,85.56865 -13.49253,29.23454 -23.30526,57.10869 -28.4144,80.71428 l -1.70059,7.85715 -53.51699,-0.55052 c -29.43435,-0.30277 -61.42049,-1.00357 -71.08031,-1.55728 z"
       id="path4576"
       inkscape:connector-curvature="0"
       transform="matrix(0.26458333,0,0,0.26458333,61.840728,77.225739)" />
    <path
       style="fill:#00beca;fill-opacity:1;stroke-width:2.85714293"
       d="m 118.27127,377.13161 c -14.96596,-2.41376 85.29871,-5.29502 110,-3.16102 l 18.57142,1.60442 -22.57393,2.10536 c -26.28062,2.45107 -89.42464,2.12416 -105.99749,-0.54876 z"
       id="path4580"
       inkscape:connector-curvature="0"
       transform="matrix(0.26458333,0,0,0.26458333,61.840728,77.225739)" />
    <path
       style="fill:#00beca;fill-opacity:1;stroke-width:2.85714293"
       d="m 170.44743,420.62213 c 3.55404,-0.68341 8.6969,-0.65746 11.42858,0.0577 2.73167,0.71512 -0.17617,1.27428 -6.46189,1.24256 -6.28571,-0.0317 -8.52072,-0.61681 -4.96669,-1.30022 z"
       id="path4582"
       inkscape:connector-curvature="0"
       transform="matrix(0.26458333,0,0,0.26458333,61.840728,77.225739)" />
    <path
       style="fill:#00beca;fill-opacity:1;stroke-width:2.85714293"
       d="m 139.69984,416.92859 c 0,-1.75238 13.80952,-2.85714 35.71428,-2.85714 21.90477,0 35.71429,1.10476 35.71429,2.85714 0,1.75238 -13.80952,2.85715 -35.71429,2.85715 -21.90476,0 -35.71428,-1.10477 -35.71428,-2.85715 z"
       id="path4584"
       inkscape:connector-curvature="0"
       transform="matrix(0.26458333,0,0,0.26458333,61.840728,77.225739)" />
    <path
       style="fill:#00beca;fill-opacity:1;stroke-width:2.85714293"
       d="m 174.75421,463.52005 c 2.77991,-0.72441 6.63705,-0.67677 8.57143,0.10587 1.93438,0.78263 -0.34009,1.37533 -5.05437,1.3171 -4.71429,-0.0582 -6.29696,-0.69856 -3.51706,-1.42297 z"
       id="path4586"
       inkscape:connector-curvature="0"
       transform="matrix(0.26458333,0,0,0.26458333,61.840728,77.225739)" />
    <path
       style="fill:#00beca;fill-opacity:1;stroke-width:2.85714293"
       d=""
       id="path4588"
       inkscape:connector-curvature="0"
       transform="matrix(0.26458333,0,0,0.26458333,61.840728,77.225739)" />
    <path
       style="fill:#00beca;fill-opacity:1;stroke-width:2.85714293"
       d=""
       id="path4590"
       inkscape:connector-curvature="0"
       transform="matrix(0.26458333,0,0,0.26458333,61.840728,77.225739)" />
    <path
       style="fill:#00beca;fill-opacity:1;stroke-width:2.85714293"
       d="m 140.41412,459.6967 c -3.53571,-1.42118 -6.42857,-3.26826 -6.42857,-4.10461 0,-0.83635 18.32143,-1.47975 40.71429,-1.42977 36.42351,0.0813 40.12979,0.53295 35.1682,4.28571 -6.3273,4.78573 -58.32829,5.72063 -69.45392,1.24867 z"
       id="path4592"
       inkscape:connector-curvature="0"
       transform="matrix(0.26458333,0,0,0.26458333,61.840728,77.225739)" />
    <path
       style="fill:#00beca;fill-opacity:1;stroke-width:2.85714293"
       d="m 143.98555,337.63759 -40,-0.88954 -4.697041,-19.41775 c -2.583375,-10.67977 -13.833375,-39.84606 -25,-64.81399 L 53.985551,207.12009 v -33.2833 c 0,-32.25543 0.305431,-33.89382 9.890057,-53.05236 11.962301,-23.911232 33.193118,-45.789093 56.932792,-58.667913 17.12463,-9.290143 18.15462,-9.473639 53.17715,-9.473639 33.71208,0 36.67535,0.470274 52.85714,8.388479 47.53006,23.257784 78.50471,80.921673 69.6411,129.647193 -1.62581,8.93753 -11.15094,35.53576 -21.16694,59.10719 -10.016,23.57142 -21.04875,53.46428 -24.51721,66.42857 l -6.3063,23.57143 -30.25389,-0.62932 c -16.63964,-0.34614 -48.2539,-1.0296 -70.2539,-1.51883 z"
       id="path4594"
       inkscape:connector-curvature="0"
       transform="matrix(0.26458333,0,0,0.26458333,61.840728,77.225739)" />
    <path
       style="fill:#00beca;fill-opacity:1;stroke-width:2.85714293"
       d="m 131.84269,337.65465 c -24.29376,-0.76811 -29.28571,-1.68937 -29.28571,-5.40457 0,-8.60528 -16.720489,-54.17404 -32.581563,-88.79534 L 53.985551,208.55232 v -33.99941 c 0,-33.13581 0.253674,-34.50648 9.986876,-53.96201 12.122522,-24.231493 32.535304,-45.299519 56.463303,-58.275752 17.56308,-9.524515 18.38111,-9.67227 53.54982,-9.67227 32.4569,0 37.14754,0.67393 51.42857,7.389026 36.27632,17.057514 64.39415,54.943076 71.23653,95.983066 4.37048,26.21375 1.27552,40.52595 -19.52822,90.30571 -9.33388,22.33435 -20.58058,52.50077 -24.99268,67.03648 l -8.022,26.42858 -41.48967,-0.60258 c -22.81932,-0.3314 -54.66824,-1.01922 -70.77539,-1.52851 z"
       id="path4596"
       inkscape:connector-curvature="0"
       transform="matrix(0.26458333,0,0,0.26458333,61.840728,77.225739)" />
    <path
       style="fill:#00beca;fill-opacity:1;stroke-width:2.85714293"
       d="m 113.98555,416.92859 c 0,-1.57143 2.57143,-2.85714 5.71429,-2.85714 3.14285,0 5.71428,1.28571 5.71428,2.85714 0,1.57143 -2.57143,2.85715 -5.71428,2.85715 -3.14286,0 -5.71429,-1.28572 -5.71429,-2.85715 z"
       id="path4598"
       inkscape:connector-curvature="0"
       transform="matrix(0.26458333,0,0,0.26458333,61.840728,77.225739)" />
    <path
       style="fill:#00beca;fill-opacity:1;stroke-width:2.85714293"
       d=""
       id="path4600"
       inkscape:connector-curvature="0"
       transform="matrix(0.26458333,0,0,0.26458333,61.840728,77.225739)" />
    <path
       style="fill:#00beca;fill-opacity:1;stroke-width:2.85714293"
       d=""
       id="path4602"
       inkscape:connector-curvature="0"
       transform="matrix(0.26458333,0,0,0.26458333,61.840728,77.225739)" />
    <path
       style="fill:#00beca;fill-opacity:1;stroke-width:2.85714293"
       d="m 190.44743,463.47928 c 3.55404,-0.68341 8.6969,-0.65747 11.42858,0.0577 2.73167,0.71512 -0.17617,1.27427 -6.46189,1.24256 -6.28571,-0.0317 -8.52072,-0.61682 -4.96669,-1.30022 z"
       id="path4604"
       inkscape:connector-curvature="0"
       transform="matrix(0.26458333,0,0,0.26458333,61.840728,77.225739)" />
    <path
       style="fill:#00beca;fill-opacity:1;stroke-width:2.85714293"
       d="m 126.42561,337.66485 -23.27424,-0.95774 -1.95962,-10.44569 C 98.963977,314.38635 76.183815,256.182 62.873743,228.35716 54.455895,210.75957 53.989941,207.98366 53.987805,175.41942 53.985622,142.12984 54.290334,140.429 63.713284,121.1337 78.733471,90.376995 103.8131,67.194256 134.63169,55.579208 c 10.94654,-4.125585 19.60215,-4.854941 45.71428,-3.852066 29.80621,1.144752 33.53847,1.945037 49.99159,10.719403 33.60606,17.921939 59.53718,54.052295 66.73359,92.981275 4.52231,24.4634 1.70555,36.94724 -21.61255,95.78649 -11.52106,29.07143 -22.42789,58.64285 -24.23741,65.71428 -1.80952,7.07143 -3.94301,15.10715 -4.74109,17.85715 -1.31607,4.53488 -5.88483,4.94591 -49.11566,4.41842 -26.21553,-0.31985 -58.13801,-1.01254 -70.93883,-1.53931 z"
       id="path4606"
       inkscape:connector-curvature="0"
       transform="matrix(0.26458333,0,0,0.26458333,61.840728,77.225739)" />
  </g>
</svg>
