<?xml version="1.0" encoding="UTF-8" standalone="no"?>
<svg
   xmlns:dc="http://purl.org/dc/elements/1.1/"
   xmlns:cc="http://creativecommons.org/ns#"
   xmlns:rdf="http://www.w3.org/1999/02/22-rdf-syntax-ns#"
   xmlns:svg="http://www.w3.org/2000/svg"
   xmlns="http://www.w3.org/2000/svg"
   id="svg8"
   version="1.1"
   viewBox="0 0 92.52993 134.21819"
   height="134.21819mm"
   width="92.52993mm">
  <defs
     id="defs2" />
  <metadata
     id="metadata5">
    <rdf:RDF>
      <cc:Work
         rdf:about="">
        <dc:format>image/svg+xml</dc:format>
        <dc:type
           rdf:resource="http://purl.org/dc/dcmitype/StillImage" />
        <dc:title></dc:title>
      </cc:Work>
    </rdf:RDF>
  </metadata>
  <g
     transform="translate(-61.840728,-77.225739)"
     id="layer1">
    <path
       id="path21"
       d="m 94.988015,210.9687 c -4.178435,-1.33871 -8.633093,-5.5746 -10.321685,-9.81479 -0.386122,-0.96958 -0.73243,-1.34945 -1.688468,-1.85209 -2.74416,-1.44274 -5.611979,-5.30495 -6.378871,-8.59069 -0.47765,-2.0465 -0.406635,-5.31577 0.153292,-7.05674 0.45848,-1.42555 0.4626,-1.60882 0.06543,-2.91042 -0.693494,-2.27268 -0.785574,-3.46506 -0.436994,-5.65875 0.428308,-2.69543 0.41179,-3.76733 -0.09526,-6.18135 -0.229243,-1.09141 -0.619583,-3.23453 -0.867421,-4.7625 -0.830548,-5.12045 -2.006735,-8.07426 -6.211356,-15.59882 -2.852033,-5.10398 -4.088556,-7.74204 -5.15212,-10.99181 -2.686,-8.20719 -2.938301,-17.74666 -0.699773,-26.45833 3.720664,-14.479691 15.030313,-26.822671 29.086311,-31.743841 6.01775,-2.10689 6.134328,-2.12283 15.52779,-2.12283 8.40727,0 8.48557,0.005 11.16093,0.72773 15.51726,4.19125 26.9125,14.43735 32.44173,29.170191 3.56906,9.50989 3.73406,20.98857 0.44308,30.82396 -0.91033,2.72059 -3.5031,8.08217 -5.94959,12.30312 -3.54061,6.10865 -5.04905,10.53888 -5.6887,16.70747 -0.13956,1.34589 -0.451,2.94005 -0.69208,3.54257 -0.39152,0.97851 -0.39954,1.29786 -0.0751,2.99044 0.50138,2.61546 0.45987,4.77524 -0.129,6.71155 -0.46624,1.53308 -0.47205,1.74297 -0.0879,3.175 0.69092,2.57542 0.75971,3.43709 0.45314,5.67615 -0.36368,2.65617 -0.80255,3.81663 -2.31858,6.13073 -1.16327,1.77565 -3.11748,3.58039 -4.69215,4.33326 -0.54741,0.26173 -0.95744,0.7711 -1.3031,1.61882 -1.66911,4.09345 -5.16641,7.61236 -9.42098,9.47916 l -1.70635,0.74871 -11.90625,0.059 c -11.154122,0.0552 -12.007562,0.0265 -13.510046,-0.45487 z M 117.6548,199.01107 c 0.67058,-0.39422 1.41746,-1.0193 1.65974,-1.38907 l 0.44051,-0.6723 h -11.65707 c -11.353585,0 -11.6501,0.0131 -11.38915,0.50063 0.380291,0.71058 1.803723,1.85864 2.483062,2.00269 0.316206,0.0671 0.813048,0.17621 1.104088,0.24258 0.29104,0.0664 4.04151,0.10077 8.33437,0.0764 l 7.80521,-0.0442 z m 9.17293,-10.41074 c 0.68583,-0.48038 0.76901,-1.48603 0.17227,-2.08277 -0.37009,-0.37008 -2.45777,-0.41577 -18.99709,-0.41577 -14.099348,0 -18.657889,0.0766 -18.898806,0.3175 -0.526269,0.52627 -0.377293,1.72728 0.27054,2.18104 0.518337,0.36305 2.737998,0.41187 18.726546,0.41187 15.98854,0 18.2082,-0.0488 18.72654,-0.41187 z m 0.18663,-10.86618 c 0.61234,-0.61234 0.40598,-1.73767 -0.39234,-2.13952 -0.51193,-0.25769 -4.73015,-0.33384 -18.6604,-0.33686 -15.866412,-0.003 -18.06861,0.0449 -18.586976,0.40798 -0.647833,0.45376 -0.796809,1.65477 -0.27054,2.18104 0.240917,0.24091 4.799458,0.3175 18.898806,0.3175 16.80258,0 18.62249,-0.0412 19.01145,-0.43014 z m 0.49959,-11.01309 c 0.20622,-0.32743 0.45753,-1.30969 0.55846,-2.18282 0.82612,-7.14674 3.04535,-13.28687 7.98498,-22.09271 2.57527,-4.59092 3.87086,-7.58222 4.75571,-10.9802 0.72127,-2.76983 0.75713,-3.17881 0.74231,-8.46667 -0.015,-5.35478 -0.0455,-5.66876 -0.84018,-8.65903 -1.54072,-5.79723 -4.57627,-11.00808 -8.93341,-15.335161 -2.58407,-2.56625 -6.44776,-5.30074 -9.44878,-6.68729 -2.34814,-1.08491 -6.66995,-2.35741 -9.51675,-2.80208 -2.60953,-0.40761 -9.1981,-0.18067 -11.85885,0.40847 -13.901301,3.07801 -24.322079,14.340201 -26.319752,28.444881 -0.463336,3.2714 -0.497859,5.60054 -0.131377,8.86354 0.569976,5.07484 1.901553,8.87189 5.163709,14.72454 5.310209,9.52707 7.11698,14.29237 8.21077,21.65567 0.248589,1.67349 0.568674,3.19154 0.711295,3.37344 0.203187,0.25915 4.402762,0.33073 19.403105,0.33073 h 19.1438 z"
       style="fill:#000000;stroke-width:0.26458335" />
  </g>
</svg>
